<?xml version="1.0" encoding="UTF-8"?>
<svg width="100px" height="32px" viewBox="0 0 100 32" version="1.1" xmlns="http://www.w3.org/2000/svg" xmlns:xlink="http://www.w3.org/1999/xlink">
    <title>Groww</title>
    <g id="Page-1" stroke="none" stroke-width="1" fill="none" fill-rule="evenodd">
        <g id="groww" fill="#00d09c" fill-rule="nonzero">
            <path d="M16,0 C7.2,0 0,7.2 0,16 C0,24.8 7.2,32 16,32 C24.8,32 32,24.8 32,16 C32,7.2 24.8,0 16,0 Z M16,24 C11.6,24 8,20.4 8,16 C8,11.6 11.6,8 16,8 C20.4,8 24,11.6 24,16 C24,20.4 20.4,24 16,24 Z M44.8,8.4 C42.4,8.4 40.4,9.6 39.2,11.6 L39.2,8.8 L35.2,8.8 L35.2,31.2 L39.2,31.2 L39.2,20.4 C40.4,22.4 42.4,23.6 44.8,23.6 C49.6,23.6 53.2,20 53.2,16 C53.2,12 49.6,8.4 44.8,8.4 Z M44,20 C41.2,20 39.2,18 39.2,16 C39.2,14 41.2,12 44,12 C46.8,12 48.8,14 48.8,16 C48.8,18 46.8,20 44,20 Z M64.8,8.4 C60,8.4 56.4,12 56.4,16 C56.4,20 60,23.6 64.8,23.6 C69.6,23.6 73.2,20 73.2,16 C73.2,12 69.6,8.4 64.8,8.4 Z M64.8,20 C62,20 60,18 60,16 C60,14 62,12 64.8,12 C67.6,12 69.6,14 69.6,16 C69.6,18 67.6,20 64.8,20 Z M83.2,8.4 C81.2,8.4 79.6,9.2 78.4,10.4 L78.4,0.8 L74.4,0.8 L74.4,23.2 L78.4,23.2 L78.4,14.8 C79.2,13.6 80.4,12.8 82,12.8 C84,12.8 85.2,14 85.2,16 L85.2,23.2 L89.2,23.2 L89.2,15.2 C89.2,11.2 86.8,8.4 83.2,8.4 Z M100,8.8 L95.6,8.8 L95.6,4.4 L91.6,4.4 L91.6,8.8 L89.2,8.8 L89.2,12.4 L91.6,12.4 L91.6,23.2 L95.6,23.2 L95.6,12.4 L100,12.4 L100,8.8 Z"></path>
        </g>
    </g>
</svg>
