<?xml version="1.0" encoding="UTF-8"?>
<svg width="120px" height="32px" viewBox="0 0 120 32" version="1.1" xmlns="http://www.w3.org/2000/svg" xmlns:xlink="http://www.w3.org/1999/xlink">
    <title>Upstox</title>
    <g id="Page-1" stroke="none" stroke-width="1" fill="none" fill-rule="evenodd">
        <g id="upstox" fill="#e74c3c" fill-rule="nonzero">
            <path d="M16.9,0.5 L0.5,30.5 L6.4,30.5 L22.8,0.5 L16.9,0.5 Z M42.3,6.5 C36.2,6.5 31.6,11.1 31.6,17.2 C31.6,23.3 36.2,27.9 42.3,27.9 C48.4,27.9 53,23.3 53,17.2 C53,11.1 48.4,6.5 42.3,6.5 Z M42.3,11.2 C45.7,11.2 48.1,13.8 48.1,17.2 C48.1,20.6 45.7,23.2 42.3,23.2 C38.9,23.2 36.5,20.6 36.5,17.2 C36.5,13.8 38.9,11.2 42.3,11.2 Z M70.1,6.5 C68.2,6.5 66.4,7 64.8,7.8 L64.8,0.5 L59.9,0.5 L59.9,30.5 L64.8,30.5 L64.8,12.3 C66.1,11.6 67.6,11.2 69.2,11.2 C71.8,11.2 73.1,12.5 73.1,15.3 L73.1,30.5 L78,30.5 L78,14.2 C78,9.1 75.1,6.5 70.1,6.5 Z M95.2,6.5 C89.1,6.5 84.5,11.1 84.5,17.2 C84.5,23.3 89.1,27.9 95.2,27.9 C101.3,27.9 105.9,23.3 105.9,17.2 C105.9,11.1 101.3,6.5 95.2,6.5 Z M95.2,11.2 C98.6,11.2 101,13.8 101,17.2 C101,20.6 98.6,23.2 95.2,23.2 C91.8,23.2 89.4,20.6 89.4,17.2 C89.4,13.8 91.8,11.2 95.2,11.2 Z"></path>
        </g>
    </g>
</svg>
