<?xml version="1.0" encoding="UTF-8"?>
<svg width="145px" height="31px" viewBox="0 0 145 31" version="1.1" xmlns="http://www.w3.org/2000/svg" xmlns:xlink="http://www.w3.org/1999/xlink">
    <title>Zerodha</title>
    <g id="Page-1" stroke="none" stroke-width="1" fill="none" fill-rule="evenodd">
        <g id="zerodha" fill="#424242" fill-rule="nonzero">
            <path d="M14.2,0.5 L0.5,30.5 L6.4,30.5 L20.1,0.5 L14.2,0.5 Z M39.6,0.5 L25.9,30.5 L31.8,30.5 L45.5,0.5 L39.6,0.5 Z M67.6,6.5 C65.7,6.5 63.9,7 62.3,7.8 L62.3,0.5 L57.4,0.5 L57.4,30.5 L62.3,30.5 L62.3,12.3 C63.6,11.6 65.1,11.2 66.7,11.2 C69.3,11.2 70.6,12.5 70.6,15.3 L70.6,30.5 L75.5,30.5 L75.5,14.2 C75.5,9.1 72.6,6.5 67.6,6.5 Z M92.7,6.5 C86.6,6.5 82,11.1 82,17.2 C82,23.3 86.6,27.9 92.7,27.9 C98.8,27.9 103.4,23.3 103.4,17.2 C103.4,11.1 98.8,6.5 92.7,6.5 Z M92.7,11.2 C96.1,11.2 98.5,13.8 98.5,17.2 C98.5,20.6 96.1,23.2 92.7,23.2 C89.3,23.2 86.9,20.6 86.9,17.2 C86.9,13.8 89.3,11.2 92.7,11.2 Z M120.5,6.5 C118.6,6.5 116.8,7 115.2,7.8 L115.2,0.5 L110.3,0.5 L110.3,30.5 L115.2,30.5 L115.2,12.3 C116.5,11.6 118,11.2 119.6,11.2 C122.2,11.2 123.5,12.5 123.5,15.3 L123.5,30.5 L128.4,30.5 L128.4,14.2 C128.4,9.1 125.5,6.5 120.5,6.5 Z M144.5,6.5 C138.4,6.5 133.8,11.1 133.8,17.2 C133.8,23.3 138.4,27.9 144.5,27.9 C150.6,27.9 155.2,23.3 155.2,17.2 C155.2,11.1 150.6,6.5 144.5,6.5 Z M144.5,11.2 C147.9,11.2 150.3,13.8 150.3,17.2 C150.3,20.6 147.9,23.2 144.5,23.2 C141.1,23.2 138.7,20.6 138.7,17.2 C138.7,13.8 141.1,11.2 144.5,11.2 Z"></path>
        </g>
    </g>
</svg>
